<?xml version="1.0" encoding="UTF-8"?>
<svg id="Layer_1" data-name="Layer 1" xmlns="http://www.w3.org/2000/svg" viewBox="0 0 1783.7684 832.2385">
  <path d="M930.3501,467.3896c-.1789.0593-.417.0593-.6552.0593-.2385,0-.417,0-.6555-.0593h1.3107Z" fill="none"/>
  <path d="M931.0649,467.4788h-2.7404c.4767-.0596.8937-.1193,1.37-.1193.4767,0,.9533.0596,1.3704.1193Z" fill="none"/>
  <g>
    <path d="M488.1573,630.7932c0,122.0383-98.6494,201.3646-250.1803,201.3646-106.1064,0-184.7541-39.6621-223.061-101.3599-6.1017-9.1536-9.8302-20.0018-9.8302-31.8659,0-31.5265,25.7621-57.2907,57.2886-57.2907,23.3909,0,43.732,14.2373,52.8856,34.5784-.3393.3373,0,.3373,0,.3373,17.9658,30.8499,60.0012,50.5124,122.7169,50.5124,87.7992,0,133.2258-37.9696,133.2258-85.428,0-57.2907-63.7317-64.7497-139.3296-74.5799C127.1241,553.8401,0,534.1797,0,396.5468c0-118.6491,92.885-198.9935,236.9589-198.9935,98.3101,0,171.1933,38.3069,207.8057,95.5976,2.7126,3.3912,5.0858,7.1197,6.441,11.1875,3.0519,6.7804,4.4071,13.9001,4.4071,21.6963,0,31.5265-25.4248,56.9513-56.612,56.9513-22.7143,0-42.0374-13.2214-51.189-32.2052-17.2892-29.1533-54.9174-48.4764-109.8349-48.4764-76.9531,0-120.683,36.6123-120.683,84.4101,0,57.2907,63.3924,63.3924,137.9702,73.2246,104.7511,13.2193,232.8932,32.8818,232.8932,170.854Z" fill="#07171a"/>
    <path id="e" d="M1206.7795,501.2528c0-1.0748-.0767-2.1494-.0767-3.2624,0-.9211,0-1.9576-.1919-2.9171-9.2502-175.1787-141.4403-297.5426-321.4551-297.5426s-324.4874,133.3799-324.4874,317.1561,136.4504,317.3097,324.4874,317.3097c90.2378,0,171.801-30.7446,229.7589-86.6298l.6526-.6524-.2303-.2303c13.0118-11.2845,20.4579-27.5587,20.4579-44.7925,0-11.9754-3.4928-23.4518-10.0947-33.2777-2.3413-3.3009-4.6827-6.103-7.1775-8.5977-5.6423-5.8342-12.6279-10.44-20.1509-13.3187-1.2283-.5374-2.6484-.998-4.0686-1.3051-5.4887-1.8423-11.4381-2.7634-17.6176-2.7634-15.3147,0-29.785,5.719-40.7624,16.1208l-.499.5758c-1.8424,2.4565-3.915,4.8363-6.1028,7.0625-33.1627,34.9282-80.2967,51.8935-144.127,51.8935-96.8779,0-168.001-52.3925-190.3398-140.2121v-.8061l-.5757-1.3051c-.1151-.2687-.1151-.3071-.1536-.4222l.0767-.6524-.2303-.6909v-.4606c0-5.105,3.7998-9.2885,8.7128-9.7109h.4222l.6141-.1534h.2687l.499.1534h446.4676c30.284-1.4586,54.3883-25.4862,56.0388-55.8852v-.4222c0-1.4201,0-2.7253-.0767-4.222l-.0387-.0389ZM1062.0767,451.4321h-353.0441c-6.41,0-11.63-5.22-11.63-11.6301,0-.5374.0767-1.113.1536-1.6504v-.1153l.3454-1.0748c.2687-.9211.5374-1.8807.9211-2.5716l.2687-.5758c27.5587-77.6865,95.381-122.2872,185.9642-122.2872s158.9428,45.1381,186.3864,120.7902l.0767.6524.5374.8061c.7293,1.113,1.1899,2.111,1.4201,3.2624v.7293l.2303.5758c.1151.3455.1151.6524.1151,1.497,0,6.4098-5.2968,11.6301-11.7835,11.6301l.0384-.0382Z" fill="#07171a"/>
    <path d="M1783.7684,631.8919v.3373c-.3393,4.4071-1.0159,8.8143-1.6946,13.2214,0,.6787,0,1.018-.3393,1.3552-21.0177,124.0743-111.1901,185.4327-236.6196,185.4327-144.074,0-241.7054-80.6816-241.7054-244.0786V57.9673c0-32.2031,26.1035-57.9673,57.9693-57.9673s57.9673,25.7641,57.9673,57.9673v155.6008h200.3487c29.1533,0,52.8835,23.7302,52.8835,52.8835,0,29.4926-23.7302,53.2229-52.8835,53.2229h-200.3487v268.4855c0,94.9189,50.173,136.617,125.7688,136.617,65.7656,0,113.2261-30.5106,124.0722-102.0386.3393-1.018.3393-1.6946.3393-2.3732,5.7644-26.1035,28.816-45.7638,56.6141-45.7638,31.8638,0,57.2886,25.4248,57.6279,57.2907Z" fill="#07171a"/>
  </g>
</svg>