<?xml version="1.0" encoding="UTF-8"?>
<svg id="Layer_1" data-name="Layer 1" xmlns="http://www.w3.org/2000/svg" viewBox="0 0 813.61 343.7023">
  <path d="M445.2709,223.1215c-.1789.0593-.417.0593-.6552.0593-.2385,0-.417,0-.6555-.0593h1.3107Z" fill="none"/>
  <path d="M445.9858,223.2107h-2.7404c.4767-.0596.8937-.1193,1.37-.1193.4767,0,.9533.0596,1.3704.1193Z" fill="none"/>
  <g>
    <path d="M201.9669,178.5657c0,11.9659-9.3066,21.8049-21.1402,22.4703h-2.9256c-9.972-.5324-18.2155-7.7119-20.3425-17.2855-.1331-.7977-.2662-1.4624-.3993-2.127-5.1857-31.5116-26.3259-44.6745-55.1781-44.6745-34.0378,0-56.5082,17.6831-56.5082,61.1615v139.3422H0v-139.3422c0-69.8042,41.2182-103.3105,101.9812-103.3105,52.6518,0,90.8114,25.6621,99.5872,79.2447.2654,1.4624.3985,2.9256.3985,4.521Z" fill="#32140c"/>
    <g>
      <path d="M265.6554,0c-18.2155,0-31.6446,13.4283-31.6446,31.6438,0,18.0832,13.4291,32.0439,31.6446,32.0439s31.6446-13.9607,31.6446-32.0439c0-18.2155-13.4291-31.6438-31.6446-31.6438Z" fill="#32140c"/>
      <path d="M288.6573,123.5199v213.9328h-45.4722V123.5199c0-11.4344,8.5088-21.008,19.6779-22.4703h6.1165c11.0351,1.4624,19.6779,11.0359,19.6779,22.4703Z" fill="#32140c"/>
    </g>
    <path d="M531.7093,264.7238c0,47.8654-38.6919,78.9785-98.1248,78.9785-41.6167,0-72.4636-15.5561-87.4882-39.755-2.3932-3.5902-3.8556-7.845-3.8556-12.4983,0-12.3652,10.1043-22.4703,22.4695-22.4703,9.1743,0,17.1524,5.5841,20.7426,13.5622-.1331.1323,0,.1323,0,.1323,7.0465,12.0999,23.5334,19.8118,48.1316,19.8118,34.4363,0,52.2533-14.8923,52.2533-33.5063,0-22.4703-24.9966-25.3959-54.6473-29.2515-41.0843-5.1857-90.9445-12.8968-90.9445-66.8787,0-46.5361,36.431-78.0485,92.9392-78.0485,38.5588,0,67.1448,15.0246,81.5048,37.4949,1.0639,1.3301,1.9947,2.7925,2.5263,4.3879,1.197,2.6594,1.7286,5.4518,1.7286,8.5097,0,12.3652-9.972,22.3372-22.2042,22.3372-8.9089,0-16.4878-5.1857-20.0772-12.6314-6.7811-11.4344-21.5395-19.0132-43.079-19.0132-30.1823,0-47.3339,14.36-47.3339,33.107,0,22.4703,24.8635,24.8635,54.1142,28.7199,41.0851,5.1848,91.3445,12.8968,91.3445,67.0117Z" fill="#32140c"/>
    <path id="e" d="M813.5648,213.9159c0-.4216-.0301-.843-.0301-1.2796,0-.3613,0-.7678-.0753-1.1441-3.6281-68.708-55.4752-116.7011-126.08-116.7011s-127.2693,52.3138-127.2693,124.3938,53.5181,124.4541,127.2693,124.4541c35.3927,0,67.3832-12.0585,90.1152-33.9776l.2559-.2559-.0903-.0903c5.1034-4.426,8.0239-10.809,8.0239-17.5684,0-4.6969-1.3699-9.1982-3.9593-13.0521-.9183-1.2946-1.8366-2.3937-2.8152-3.3722-2.213-2.2883-4.9529-4.0947-7.9035-5.2238-.4817-.2108-1.0388-.3914-1.5958-.5119-2.1528-.7226-4.4862-1.0839-6.9099-1.0839-6.0067,0-11.6822,2.2431-15.9877,6.3228l-.1957.2259c-.7226.9635-1.5355,1.8969-2.3936,2.77-13.007,13.6994-31.4937,20.3535-56.529,20.3535-37.9971,0-65.8928-20.5492-74.6544-54.9935v-.3162l-.2258-.5119c-.0452-.1054-.0452-.1205-.0602-.1656l.0301-.2559-.0903-.271v-.1806c0-2.0023,1.4904-3.6431,3.4173-3.8088h.1656l.2409-.0602h.1054l.1957.0602h175.1119c11.8779-.5721,21.332-9.9961,21.9793-21.9191v-.1656c0-.557,0-1.0689-.0301-1.6559l-.0152-.0153ZM756.8099,194.3754h-138.4697c-2.5141,0-4.5615-2.0474-4.5615-4.5615,0-.2108.0301-.4365.0602-.6473v-.0452l.1355-.4216c.1054-.3613.2108-.7376.3613-1.0086l.1054-.2259c10.809-30.4699,37.41-47.9631,72.9382-47.9631s62.34,17.7039,73.1038,47.3759l.0301.2559.2108.3162c.286.4365.4667.828.557,1.2796v.286l.0903.2259c.0452.1355.0452.2559.0452.5871,0,2.514-2.0775,4.5615-4.6217,4.5615l.0151-.015Z" fill="#32140c"/>
  </g>
</svg>